<svg version="1.1" id="Layer_1" xmlns="http://www.w3.org/2000/svg" xmlns:xlink="http://www.w3.org/1999/xlink" x="0px" y="0px"
	 width="100%" viewBox="0 0 816 1024" enable-background="new 0 0 816 1024" xml:space="preserve">
<path fill="#000000" opacity="1.000000" stroke="none" 
	d="
M617.390320,507.230042 
	C609.997559,523.934631 599.330322,538.395264 591.529419,554.449463 
	C573.538147,591.475220 557.623962,629.390503 542.789551,667.764221 
	C540.037109,674.884277 538.378845,682.422791 536.092285,689.729614 
	C535.061401,693.024109 534.271973,697.163879 529.297119,695.704407 
	C524.769775,694.376221 525.789917,690.788574 526.683167,687.450012 
	C529.297302,677.679260 531.948425,667.921814 536.603760,657.737610 
	C528.213196,667.272827 518.997559,674.244385 509.454865,680.870422 
	C499.028015,688.110352 487.637939,692.974854 475.236176,695.475220 
	C471.680603,696.192139 470.569580,697.495605 471.003815,701.550964 
	C472.386780,714.466919 476.218658,726.579041 481.217987,738.451355 
	C488.193390,755.016418 494.237030,771.984253 504.734528,786.884583 
	C510.279724,794.755493 516.588013,801.671265 524.480774,807.172119 
	C535.902588,815.132629 548.038391,814.121399 557.937378,804.246704 
	C562.670715,799.525085 567.006775,794.402161 570.531433,788.754944 
	C580.496277,772.789001 589.875183,756.612427 596.105652,738.594727 
	C602.187378,721.007446 611.120483,704.413147 615.314148,686.125549 
	C623.050354,652.389709 633.086243,619.243408 640.783386,585.491760 
	C645.560852,564.542786 652.670654,544.237427 659.706787,523.944946 
	C660.404663,521.932251 660.884277,519.602295 663.190186,518.760620 
	C664.828491,518.162598 666.520508,518.607056 667.892395,519.730652 
	C669.777649,521.274780 669.338074,523.347107 668.844299,525.279846 
	C666.124878,535.924927 663.520325,546.604065 660.542786,557.177551 
	C647.414124,603.797913 634.087769,650.365417 620.741028,696.920166 
	C611.698547,728.460999 598.667725,758.682922 582.235046,787.227234 
	C577.231567,795.918579 570.265503,803.219177 562.841187,809.981384 
	C550.808594,820.941162 533.795776,822.388733 519.782410,814.226013 
	C506.383606,806.421326 498.334595,794.060974 490.533936,781.383301 
	C486.874359,775.435791 483.885284,769.133484 480.347443,762.940796 
	C481.738953,773.348328 483.271332,783.739319 484.490295,794.167053 
	C486.517883,811.512756 488.225372,828.896118 490.285980,846.237671 
	C492.839539,867.728149 494.482574,889.296692 495.813385,910.882080 
	C496.622620,924.007629 496.612427,937.183411 496.992432,950.335938 
	C497.097229,953.963379 495.378662,955.512634 491.791687,955.227600 
	C490.301849,955.109192 488.789215,955.152771 487.294495,955.245056 
	C484.064575,955.444458 482.911621,953.797546 482.721313,950.756531 
	C481.837799,936.636536 480.449310,922.536926 479.969086,908.405273 
	C478.950378,878.427673 475.393951,848.665161 473.064972,818.799561 
	C471.394867,797.383301 468.996002,776.047852 466.593231,754.717468 
	C464.152771,733.052368 461.676819,711.395630 460.259521,689.640991 
	C459.187836,673.190918 458.625092,656.708313 457.693390,640.248230 
	C457.232758,632.111206 456.466614,623.991089 455.804626,615.866089 
	C455.580780,613.118347 455.855042,610.788635 459.332703,610.489441 
	C463.104553,610.164978 463.105896,612.817200 463.309662,615.401184 
	C464.983398,636.628479 466.663513,657.855408 468.373596,679.079773 
	C468.929565,685.979919 469.448700,686.049194 475.856689,684.402527 
	C491.082367,680.489929 502.530853,670.299805 514.717651,661.388550 
	C522.909851,655.398193 530.974243,649.159180 537.488464,641.229675 
	C538.755981,639.686829 539.889587,638.033752 541.159546,636.492981 
	C545.826599,630.830505 545.970825,625.799744 541.827881,619.053162 
	C530.067932,599.902771 523.455261,578.465149 516.770081,557.158020 
	C510.740540,537.940430 506.842712,518.092896 499.743683,499.188446 
	C498.456299,495.760193 496.901245,492.430817 495.660614,488.987000 
	C488.152740,468.146759 472.085632,459.024933 451.243042,456.243073 
	C435.432251,454.132782 419.324554,453.899689 403.919586,449.199341 
	C397.411926,447.213684 390.833862,445.285797 385.147003,441.236206 
	C382.789825,439.557678 379.960938,439.317688 377.735687,441.307129 
	C365.068848,452.631866 349.517761,456.930115 333.308929,458.599579 
	C314.821472,460.503693 296.377319,459.368866 278.518768,453.444092 
	C271.382904,451.076630 266.153290,445.682129 260.172729,441.503265 
	C257.693695,439.770966 255.669495,439.210205 252.983475,441.052948 
	C239.447021,450.339661 224.133713,455.320129 208.422012,459.418457 
	C195.860062,462.695190 183.377029,466.282501 170.898666,469.870087 
	C142.866943,477.929382 125.092331,496.489410 115.729805,523.750183 
	C110.372208,539.349915 106.238579,555.320251 101.148705,570.991943 
	C93.977348,593.072388 84.371170,614.214905 73.371788,634.559326 
	C67.570328,645.289673 68.802467,654.065796 75.007233,663.234802 
	C92.640732,689.292419 116.698555,705.304321 148.131546,709.669800 
	C150.770584,710.036377 153.405289,710.436340 156.037170,710.851501 
	C158.645584,711.263000 161.247894,711.713440 163.731827,712.126709 
	C165.304855,710.283325 164.748138,708.366516 164.717407,706.624084 
	C164.288254,682.289185 165.327209,657.997498 166.793091,633.718628 
	C166.953232,631.066040 167.405701,628.431396 167.717010,625.787720 
	C167.999115,623.392029 168.821869,621.485046 171.733978,621.863220 
	C174.422379,622.212280 175.290253,624.050354 175.138748,626.517334 
	C174.740677,632.998718 174.321457,639.478943 173.893784,645.958435 
	C173.378799,653.760803 172.674057,661.554749 172.348099,669.364746 
	C169.011200,749.317078 170.641876,829.316833 170.062393,909.296143 
	C169.947861,925.104492 169.524323,940.927368 167.548889,956.659485 
	C167.116425,960.103699 166.929794,963.611084 167.963364,967.074951 
	C168.735947,969.664124 167.671219,970.960266 164.865616,971.498230 
	C155.937424,973.210144 153.880585,971.618652 153.617477,962.363281 
	C153.280350,950.503906 155.254791,938.797363 155.954330,927.004700 
	C156.900284,911.058716 158.526932,895.153992 159.570709,879.212585 
	C162.074570,840.971680 161.988403,802.652100 162.169189,764.231812 
	C160.561615,773.028015 158.690247,781.785339 157.389999,790.626770 
	C149.887970,841.638611 141.590988,892.512512 131.955505,943.170654 
	C130.376404,951.472717 130.091705,960.025208 129.300568,968.470581 
	C129.020020,971.465454 128.754852,974.171692 124.741722,974.277649 
	C121.472809,974.364014 120.087151,973.648621 120.278168,969.747620 
	C121.406952,946.696411 127.564713,924.456482 130.929031,901.771118 
	C134.513565,877.600769 138.382385,853.460388 142.795502,829.429688 
	C145.586838,814.230042 149.982513,799.330139 152.972397,784.160583 
	C156.862854,764.421814 160.075699,744.549377 163.561020,724.731140 
	C163.673126,724.093689 163.575226,723.419250 163.575226,722.384399 
	C133.448242,725.328979 109.204468,712.742676 87.129089,693.516602 
	C83.933754,698.448181 84.136604,703.925781 83.561661,709.000061 
	C79.153992,747.900940 71.097603,786.154053 64.108910,824.620300 
	C58.187542,857.211975 49.532688,889.188721 43.973095,921.812805 
	C41.376602,937.049255 39.508865,952.410156 37.332077,967.717712 
	C36.593945,972.908447 33.174355,974.956360 28.203716,973.191223 
	C25.313036,972.164612 26.487478,969.880615 26.722292,968.114502 
	C29.592255,946.528809 32.661560,924.995056 37.038948,903.625183 
	C47.787819,851.150269 60.488144,799.102783 71.099571,746.604431 
	C74.361618,730.465881 75.048386,713.902832 77.947243,697.723083 
	C79.475739,689.191833 77.821251,682.951599 72.083687,676.622742 
	C66.973694,670.986145 63.142139,664.201050 59.942337,657.179504 
	C56.963085,650.641907 56.840050,644.380066 61.070141,638.237061 
	C74.968185,618.053955 85.212944,596.050110 92.804771,572.834595 
	C97.460014,558.598999 100.943100,543.972717 105.795692,529.810791 
	C113.157188,508.326691 124.341858,489.149231 143.151108,475.508484 
	C152.568863,468.678528 163.710770,465.382721 174.614334,461.726929 
	C191.358765,456.112793 208.786880,452.847870 225.431747,446.880585 
	C232.999023,444.167694 240.293686,440.753967 247.010284,436.491486 
	C253.062866,432.650330 255.979950,425.819672 258.849670,419.506500 
	C268.445648,398.396332 270.903198,376.091034 269.511719,353.122864 
	C268.974854,344.261566 266.582092,336.457367 261.877777,328.802246 
	C255.386734,318.239655 252.660568,306.007751 249.270218,294.166809 
	C248.293427,290.755341 247.060776,288.464996 243.308090,287.187988 
	C238.007217,285.384155 233.950180,281.348694 230.658386,276.913910 
	C222.170181,265.478424 214.786011,253.470062 212.307999,239.058533 
	C211.227615,232.775330 211.672318,226.757675 214.427460,221.025330 
	C215.422363,218.955353 215.358429,217.495163 213.864975,215.644638 
	C205.847672,205.710571 202.046936,193.997238 201.017319,181.536865 
	C199.156357,159.015274 202.411652,137.329956 213.668243,117.341942 
	C217.702850,110.177834 223.448212,104.668602 231.124863,101.514984 
	C234.120255,100.284462 235.002975,98.436951 234.798584,95.356857 
	C234.501740,90.883415 234.278625,86.365753 235.811935,81.996239 
	C237.566650,76.995796 241.128784,74.681557 246.499039,75.277733 
	C247.682602,75.409119 248.611465,75.658760 249.620575,74.570717 
	C257.115997,66.488998 257.141724,66.512848 266.766327,71.216080 
	C279.647552,54.677517 298.372833,50.090805 317.634338,47.019463 
	C325.395721,45.781868 333.100769,47.890221 339.739624,51.893475 
	C353.039612,59.913368 367.193054,60.397678 382.150177,59.290424 
	C405.149536,57.587830 426.151703,63.042934 442.939972,80.146286 
	C450.426575,87.773399 453.232666,96.568718 450.411713,107.104622 
	C449.210632,111.590561 447.489044,115.962944 447.146484,120.682083 
	C446.988739,122.855270 447.243652,124.750595 449.206421,125.910156 
	C466.638489,136.208664 471.621796,153.538895 473.754425,171.692795 
	C476.310822,193.454086 470.671539,213.355927 455.936157,230.091309 
	C451.828064,234.756927 446.975555,238.603195 440.463287,239.491608 
	C437.227966,239.932953 436.896759,242.511459 436.305328,244.957870 
	C433.383270,257.044952 428.881439,268.462799 421.526367,278.580627 
	C417.230591,284.490021 411.587738,288.904236 404.873322,291.745636 
	C402.537537,292.734100 401.628662,294.098846 401.199768,296.471985 
	C400.016785,303.017609 398.798126,309.572296 397.183929,316.020813 
	C394.883911,325.209198 390.933563,333.613129 383.813049,340.158508 
	C380.664215,343.053009 379.262848,346.403198 379.285461,350.755280 
	C379.370300,367.076019 378.588531,383.413635 380.335205,399.694427 
	C381.546204,410.982605 383.860168,422.015869 387.972595,432.655518 
	C389.024811,435.377869 391.094849,436.354218 393.435242,437.297455 
	C407.001190,442.765015 421.222656,445.169861 435.678986,446.793304 
	C449.385040,448.332489 463.111481,449.723755 476.081879,455.265137 
	C488.195312,460.440430 495.708923,469.812347 501.650787,480.898438 
	C506.463959,489.878693 510.105774,499.361237 513.319458,509.016052 
	C521.995300,535.081177 530.536987,561.192444 539.445435,587.177917 
	C543.270996,598.336975 548.014099,609.157410 555.805542,619.458313 
	C558.600891,613.309570 561.252625,607.820923 563.618347,602.211609 
	C572.678711,580.729065 580.548828,558.718872 591.448059,538.051514 
	C597.273193,527.005615 603.576477,516.202820 609.947266,505.458252 
	C612.430481,501.270294 613.707336,497.456757 612.453735,492.393890 
	C610.248535,483.487518 610.021606,474.195557 609.933838,465.090820 
	C609.673706,438.100342 601.042847,413.828308 587.514832,390.936646 
	C585.314819,387.213959 582.966248,383.513123 581.327759,379.537842 
	C577.534851,370.336060 583.973450,362.665924 593.885742,364.043060 
	C604.614441,365.533600 612.132812,371.913452 618.177063,380.153137 
	C622.499146,386.045135 625.999512,392.537994 629.911011,398.734680 
	C630.865845,400.247284 631.405701,402.113190 633.312744,403.059845 
	C633.686157,402.851532 634.345642,402.714600 634.462280,402.385284 
	C640.935608,384.119934 651.683655,367.790436 658.359558,349.624542 
	C661.640869,340.695496 665.119080,331.878418 670.498901,323.942810 
	C672.196533,321.438599 674.137329,319.166138 676.455933,317.240601 
	C678.236450,315.761963 680.050842,313.864594 682.641846,314.831116 
	C685.545959,315.914429 686.134277,318.642151 686.365356,321.366852 
	C686.915894,327.858948 686.373474,334.334564 685.859802,340.798981 
	C684.878357,353.150391 679.823792,364.261047 675.116394,375.467590 
	C673.576111,379.134186 671.771179,382.702362 670.924805,387.161530 
	C674.145203,386.068329 677.009399,384.922485 679.967712,384.125763 
	C687.499023,382.097382 692.236145,384.272949 695.163452,391.300171 
	C695.960022,393.212341 697.071167,393.620758 698.838196,393.946564 
	C707.484192,395.540710 712.287415,401.819275 711.607605,410.701752 
	C711.469482,412.507324 711.539917,413.880188 713.031250,415.127655 
	C718.979980,420.103485 719.283813,426.487152 717.288635,433.328369 
	C716.679260,435.418121 715.976135,437.407776 716.521240,439.658264 
	C718.095520,446.157837 716.459839,452.254425 713.701904,458.056976 
	C707.787231,470.501709 700.067261,481.729218 690.175354,491.362396 
	C684.520142,496.869659 679.535522,502.835266 675.879578,509.866364 
	C674.765198,512.009644 673.414917,514.260559 670.524902,512.731812 
	C667.824463,511.303467 668.509888,508.758942 669.395935,506.557831 
	C671.285828,501.863403 674.592712,498.054413 677.557922,494.036957 
	C685.661438,483.057892 694.653992,472.684204 700.730591,460.320068 
	C702.101624,457.530487 703.199036,454.606476 704.179016,451.559448 
	C699.074036,457.581757 693.049194,462.021301 685.325378,463.820068 
	C680.910889,464.848053 676.693054,464.698700 673.156555,461.354736 
	C671.083862,459.394867 670.482605,457.056732 672.080933,454.613190 
	C673.678101,452.171448 676.182800,451.500336 678.620300,453.017609 
	C683.848999,456.272217 688.199646,454.367279 692.330872,451.067383 
	C697.447083,446.980621 701.721252,442.058502 705.332886,436.632355 
	C707.669861,433.121277 709.084167,429.244476 706.810974,424.712280 
	C704.146912,425.720215 702.941895,428.007660 701.410583,429.796936 
	C696.958008,434.999786 692.210876,439.915802 687.159241,444.513611 
	C682.217834,449.010986 676.589539,451.990601 669.545166,451.341949 
	C663.284485,450.765442 660.836670,447.312317 662.714844,440.727814 
	C657.143066,442.023956 652.371704,441.133636 649.226379,436.033203 
	C645.030518,429.229218 645.115051,422.105682 647.935547,414.931213 
	C649.527649,410.881561 651.866394,407.175568 655.067749,404.171021 
	C656.712280,402.627625 657.617554,401.233734 656.318909,399.033936 
	C655.254883,397.231567 656.279114,395.476501 656.752319,393.734161 
	C661.692932,375.544189 667.773010,357.772400 676.106567,340.821716 
	C678.625671,335.697723 679.540588,330.147217 680.128113,324.437836 
	C672.927856,335.193024 665.799683,345.947876 660.404663,357.740784 
	C656.234436,366.856506 653.046143,376.325317 650.662598,386.038635 
	C648.566101,394.581940 644.215149,402.097290 640.264587,409.774780 
	C637.613831,414.926147 632.873901,415.632874 628.102722,412.297913 
	C623.156982,408.840912 620.205444,403.794952 617.266846,398.752686 
	C613.661743,392.566895 610.561157,386.041077 605.717590,380.676483 
	C601.624451,376.142914 596.932068,372.678131 589.968689,373.660126 
	C589.994141,377.733856 592.395508,380.196411 594.095642,382.961426 
	C603.207886,397.781525 610.743652,413.330505 614.716492,430.338745 
	C616.108826,436.299774 616.302734,442.548309 616.143799,448.721252 
	C615.786438,462.601288 618.024841,476.257782 619.746521,489.948029 
	C620.490723,495.865448 620.649231,501.537323 617.390320,507.230042 
M244.054260,215.593048 
	C246.428696,232.238937 250.877823,248.492020 253.571243,265.062439 
	C256.108185,280.670105 258.380188,296.280975 263.251038,311.404541 
	C268.484283,327.653259 277.927490,340.380341 293.107422,348.571198 
	C297.357666,350.864532 301.635254,353.110046 305.834961,355.492676 
	C307.734802,356.570557 308.872040,358.276581 307.824219,360.507202 
	C306.868866,362.540985 304.864563,362.578949 303.037842,362.162659 
	C299.111450,361.267914 295.608978,359.282745 291.978241,357.612183 
	C287.977600,355.771454 284.480927,352.828064 279.627930,351.641113 
	C279.153717,360.972412 278.770508,369.896545 278.231476,378.811249 
	C277.317108,393.932983 276.591431,409.102722 270.037659,423.187225 
	C265.891876,432.096771 266.528778,434.779999 274.375244,441.138367 
	C277.369965,443.565155 280.660889,445.473999 284.226868,446.972443 
	C290.456055,449.589996 297.035645,450.341705 303.657654,451.219513 
	C327.125153,454.330170 348.542419,448.278046 368.919250,437.181488 
	C371.916077,435.549530 373.194977,433.502014 372.270111,429.863800 
	C371.334778,426.184418 370.943695,422.320648 370.720886,418.513855 
	C369.514465,397.900177 368.692047,377.271576 368.795013,356.615234 
	C368.800568,355.503815 369.120636,354.268646 368.066162,353.310791 
	C366.369019,352.946136 365.371735,354.333374 364.121063,355.017517 
	C359.269379,357.671631 354.205353,359.738251 348.795929,360.939972 
	C345.838867,361.596893 343.366577,360.995605 342.273895,357.936981 
	C341.262573,355.105988 343.288605,353.535278 345.393524,352.439850 
	C348.044373,351.060364 350.880341,350.040619 353.614410,348.816437 
	C368.174713,342.297150 379.641785,332.744263 384.723022,316.967072 
	C394.273224,287.313538 401.767578,257.163330 406.648163,226.377686 
	C407.159210,223.154007 405.985138,221.186142 402.814697,220.544968 
	C395.432434,219.052002 389.945923,214.561951 384.906525,209.349518 
	C381.080322,205.391937 376.068054,204.265320 370.923248,203.632980 
	C369.117706,203.411057 366.901154,203.951309 365.670898,202.630966 
	C363.482666,200.282425 361.415558,200.893768 358.960938,201.807846 
	C344.360687,207.244690 330.845551,206.016495 319.016083,195.040176 
	C317.700775,193.819733 316.387390,193.548813 314.517670,193.726562 
	C292.997375,195.772675 275.264374,189.248505 263.037628,170.555527 
	C262.351501,169.506516 261.994171,168.019104 259.829285,168.038162 
	C256.117432,175.638092 250.107513,181.522186 243.215897,186.592041 
	C240.781982,188.382553 241.072296,190.984360 241.336304,193.445145 
	C242.098755,200.552505 243.006378,207.644287 244.054260,215.593048 
M220.546631,242.210907 
	C220.285233,238.145081 220.708481,234.136856 225.409851,233.053360 
	C229.904312,232.017532 232.472458,235.316925 234.410400,238.719788 
	C235.964569,241.448746 237.110657,244.422867 238.300446,247.344131 
	C241.429901,255.027908 241.400055,255.040070 234.962097,258.373138 
	C231.926102,265.019257 243.592865,267.443909 238.730026,274.344177 
	C240.928345,275.721252 242.607346,277.385803 245.538620,277.055695 
	C244.893021,270.756500 244.042297,264.702728 243.697144,258.620239 
	C242.980865,245.997040 238.301666,234.842758 231.596970,224.377655 
	C230.883362,223.263809 230.072311,222.173691 229.131271,221.251312 
	C225.955032,218.138138 222.323822,218.332977 219.795074,221.976273 
	C216.939804,226.090027 216.017883,230.739120 216.766037,235.737778 
	C218.202560,245.335709 222.868973,253.489227 228.530807,262.528320 
	C228.285339,258.843048 227.857010,255.908356 229.614014,253.935745 
	C233.419235,249.663605 230.612122,246.837830 228.100204,243.564850 
	C225.411362,244.737793 222.719223,246.742584 220.546631,242.210907 
M658.737061,428.588196 
	C661.046997,430.937897 663.042053,429.408813 664.843384,427.923737 
	C669.714233,423.908142 674.407104,419.679169 678.518188,414.873016 
	C682.714844,409.966827 687.192627,405.264557 689.050537,398.755341 
	C689.726135,396.388672 689.519592,394.571899 687.923706,392.807312 
	C686.399292,391.121643 684.622131,391.687134 682.845581,392.184906 
	C676.741516,393.895142 671.937256,397.681915 667.388550,401.873871 
	C666.183716,402.984222 664.404663,403.870575 664.453979,405.695618 
	C664.563965,409.759583 662.068237,412.457428 659.879456,415.355316 
	C656.932983,419.256470 656.184448,423.422150 658.737061,428.588196 
M411.168213,277.708496 
	C408.503601,280.175476 406.807343,278.341858 405.082794,275.808380 
	C404.753998,277.624939 404.382416,278.919037 404.322845,280.227356 
	C404.266846,281.456116 403.191223,282.703888 404.225952,283.932983 
	C404.454590,283.950592 404.670654,284.037323 404.767578,283.964783 
	C420.288269,272.348175 427.255005,256.108490 429.413666,237.477249 
	C429.762299,234.468124 428.452148,231.069946 424.507874,230.367920 
	C422.675049,230.041702 411.805023,236.753098 411.469208,238.566391 
	C410.521210,243.685059 409.841888,248.853500 409.056702,254.002319 
	C412.236267,249.099457 414.856689,244.144196 418.008820,239.505020 
	C419.389648,237.472778 421.311371,235.740921 423.842773,237.330383 
	C426.411652,238.943405 424.937012,241.167892 423.855042,243.008179 
	C420.905457,248.025070 417.786682,252.951614 415.686462,258.409821 
	C415.043671,260.080231 413.799072,261.868927 414.708862,263.647461 
	C417.486816,269.078125 415.137512,273.227051 411.168213,277.708496 
M683.921570,433.448059 
	C689.564209,426.749786 696.189636,420.789856 699.794312,412.556366 
	C700.820007,410.213379 701.722290,407.303558 699.045288,405.859283 
	C696.546631,404.511230 693.937683,406.085754 692.003845,408.058655 
	C691.209473,408.869141 690.762085,410.010010 690.097168,410.958740 
	C683.488525,420.388367 678.728455,431.217651 668.889343,438.165649 
	C674.244202,442.745209 676.198303,442.635986 680.308044,437.836792 
	C681.386414,436.577545 682.411072,435.272369 683.921570,433.448059 
M426.087494,83.409721 
	C430.444885,88.011742 431.434601,93.958633 432.731628,99.811310 
	C433.199127,101.920868 433.863159,104.401764 436.887787,103.538368 
	C439.435547,102.811104 439.889404,100.620506 439.393829,98.284706 
	C438.876678,95.847389 438.394989,93.372917 437.551910,91.039673 
	C434.403290,82.325676 429.038818,76.192833 419.168274,74.946220 
	C410.210175,73.814842 401.237244,74.235451 392.267731,74.090240 
	C391.126678,74.071762 389.872040,74.209946 389.656219,75.854630 
	C390.354736,78.020737 392.212280,77.486893 393.787811,77.512306 
	C399.272430,77.600800 404.759033,77.594620 410.242340,77.728737 
	C415.863159,77.866219 421.096375,79.256523 426.087494,83.409721 
M297.289886,63.703136 
	C295.095337,64.906433 292.566956,65.700272 291.501923,68.476196 
	C297.325775,65.855942 303.358185,64.311966 309.503143,63.064823 
	C322.498352,60.427399 334.667358,60.565777 344.103088,71.944557 
	C345.300903,73.389023 347.412689,74.095772 349.141663,75.072334 
	C350.245789,75.695961 351.432831,75.823235 352.202942,74.575050 
	C353.034271,73.227539 352.051788,72.439354 351.082153,71.720238 
	C348.818420,70.041351 346.341370,68.585175 344.325500,66.648643 
	C337.239380,59.841457 328.810608,57.165436 319.210114,58.392895 
	C311.979980,59.317291 304.736389,60.399990 297.289886,63.703136 
M445.500214,141.147720 
	C444.429443,140.675049 443.226654,139.978806 442.521698,141.506805 
	C441.847534,142.968079 442.800873,144.123016 443.816010,144.990387 
	C447.585968,148.211548 450.145050,152.234970 451.948425,156.797195 
	C454.182800,162.449738 454.359894,168.491043 455.281586,174.391037 
	C455.524902,175.948624 455.029144,177.888672 457.417938,178.242462 
	C462.045319,170.602371 455.704865,150.101044 445.500214,141.147720 
M415.871307,93.669479 
	C413.379761,90.770737 410.827606,87.887672 407.152527,86.499634 
	C405.595367,85.911530 403.800232,85.899246 402.765625,87.693977 
	C402.046936,88.940674 402.639862,90.200981 403.673492,90.695030 
	C408.974792,93.228813 412.273315,97.783974 415.767365,102.183868 
	C416.484955,103.087494 417.526184,103.874313 418.774994,102.984329 
	C419.892975,102.187569 419.958405,100.870224 419.477325,99.834534 
	C418.577667,97.897682 417.379913,96.099297 415.871307,93.669479 
M215.027985,129.555161 
	C213.325027,133.193207 211.529922,136.808167 212.429443,141.317734 
	C217.217987,130.838181 222.332138,120.682861 232.052917,113.729630 
	C224.003525,116.263710 219.303192,122.178055 215.027985,129.555161 
M375.853882,76.948143 
	C376.681610,73.767929 374.440521,73.050774 372.234009,73.072708 
	C369.437805,73.100502 366.061249,70.870117 363.929962,74.188797 
	C362.511871,76.396973 363.937042,78.213860 366.234375,78.554321 
	C369.313873,79.010689 372.538391,79.441849 375.853882,76.948143 
M294.718292,181.908661 
	C295.909271,181.778564 297.276001,182.608063 298.588135,180.962280 
	C292.269989,178.079453 284.337128,179.160507 280.004822,172.386307 
	C282.442383,179.131012 287.643829,181.400742 294.718292,181.908661 
M336.123627,192.659531 
	C341.545898,194.881134 347.011230,195.888550 352.635376,193.211594 
	C345.528168,194.316620 338.789703,193.134171 331.627075,188.878357 
	C332.954254,191.513138 334.357391,191.747604 336.123627,192.659531 
z"/>
<path fill="#000000" opacity="1.000000" stroke="none" 
	d="
M747.739746,152.764191 
	C745.157654,176.329636 734.875610,196.065689 720.519226,213.846893 
	C716.011292,219.430328 709.693542,223.182312 703.582703,226.926773 
	C698.877625,229.809875 694.373779,232.898499 690.248413,237.354965 
	C695.370117,239.282578 697.902283,242.524887 695.148193,247.965744 
	C694.593018,249.062378 695.399109,249.746735 695.899231,250.618988 
	C698.361023,254.912994 697.661133,257.759613 692.830505,258.851837 
	C686.804626,260.214355 683.072815,263.298553 681.339478,269.104401 
	C681.060669,270.038208 680.415283,270.870636 679.895325,271.723083 
	C676.422852,277.415863 672.515137,279.460449 667.678345,278.133667 
	C663.539429,276.998291 660.752869,272.792175 660.780396,266.575775 
	C660.795776,263.121765 659.456482,261.279999 656.370850,260.341705 
	C656.211731,260.293335 656.054504,260.235504 655.902100,260.169006 
	C646.247742,255.955994 645.637207,251.652802 654.094604,245.287827 
	C651.778259,242.304047 645.931702,240.681244 648.321838,235.724731 
	C651.080688,230.003525 657.383118,232.511459 662.518494,231.461243 
	C659.495667,229.370392 656.684387,227.667831 654.162720,225.610306 
	C651.865417,223.735825 649.386658,221.723297 651.062317,218.043930 
	C651.751831,216.529800 650.269775,215.669388 649.619263,214.570709 
	C639.994019,198.314194 631.641846,181.451828 627.497559,162.911865 
	C621.812927,137.481186 631.674133,113.329033 652.807190,98.181801 
	C670.657837,85.387268 689.292664,85.302551 708.635803,93.766296 
	C722.455750,99.813316 735.068298,107.307854 741.146667,122.310364 
	C745.060425,131.970367 747.482056,141.907562 747.739746,152.764191 
M733.684265,165.185638 
	C739.066772,147.948380 734.428284,120.721298 715.359253,108.764236 
	C692.890625,94.675507 673.854492,92.203476 654.656738,109.578995 
	C637.964844,124.686485 631.232605,143.538788 636.407593,165.830124 
	C639.241760,178.038437 644.198303,189.518555 650.137268,200.559311 
	C652.107971,204.223068 654.896912,207.754196 655.666687,211.669403 
	C656.425171,215.526871 658.516602,216.242142 661.308716,217.198166 
	C661.699097,216.493149 662.086975,216.084473 662.154358,215.628448 
	C664.127747,202.271561 664.985107,188.842850 664.683838,175.341721 
	C664.651306,173.883423 663.888184,172.965897 662.810425,172.027100 
	C655.389771,165.563202 653.364624,151.277084 658.595642,142.863998 
	C662.495483,136.591858 668.729614,136.782333 672.208679,143.336578 
	C673.630310,146.014816 674.292969,148.935013 674.338318,151.981842 
	C674.369263,154.062119 674.585571,156.080353 676.108704,157.806961 
	C685.254578,147.602829 686.768677,147.192261 693.105469,152.988083 
	C699.633972,147.178741 701.812500,147.519272 706.400146,155.260086 
	C708.186218,153.776230 709.844849,152.150909 711.739563,150.876785 
	C715.413574,148.406143 719.553894,147.374481 723.450623,149.884140 
	C727.451172,152.460663 727.856201,156.653610 726.854980,161.034546 
	C724.506714,171.309601 718.907593,174.693466 706.164612,173.055099 
	C701.869873,189.210403 694.454102,204.461761 690.058594,221.847137 
	C712.372559,208.267273 725.716736,189.275467 733.684265,165.185638 
M687.746704,195.439072 
	C690.783936,186.684677 693.821228,177.930283 697.070312,168.565506 
	C690.963684,172.643921 686.742249,169.770844 682.975586,165.371964 
	C680.115479,168.024963 676.107544,168.904877 676.271729,173.719086 
	C676.800232,189.220551 675.812866,204.649750 673.431885,219.982574 
	C673.017212,222.653000 673.721130,224.465103 676.667969,225.154053 
	C679.839172,225.895447 679.889465,223.397079 680.391968,221.673904 
	C682.859558,213.210876 685.178833,204.704605 687.746704,195.439072 
z"/>
<path fill="#000000" opacity="1.000000" stroke="none" 
	d="
M741.842896,72.643074 
	C741.264526,73.893730 740.884705,74.818275 740.406799,75.689011 
	C739.109619,78.052483 737.305847,79.812607 734.413757,78.886795 
	C731.622375,77.993210 730.792664,75.491287 730.992737,72.880600 
	C731.181030,70.423531 731.667786,67.928497 732.442810,65.589149 
	C734.423584,59.609913 736.502808,53.654743 738.814392,47.797188 
	C740.022766,44.735001 742.034241,42.005932 745.986206,43.550362 
	C750.055725,45.140743 750.588135,48.277103 749.170837,52.135056 
	C746.711609,58.829235 744.381165,65.570755 741.842896,72.643074 
z"/>
<path fill="#000000" opacity="1.000000" stroke="none" 
	d="
M798.009277,157.553680 
	C802.269714,158.775513 803.664551,161.446030 803.272400,165.266922 
	C802.886414,169.027679 799.944275,170.217468 797.018372,170.742630 
	C791.765808,171.685379 786.381042,171.625305 781.113220,170.852692 
	C777.226379,170.282578 774.885803,167.659744 774.909241,163.576767 
	C774.932373,159.544601 777.611938,157.447205 781.203369,157.021698 
	C786.650452,156.376328 792.160400,156.244629 798.009277,157.553680 
z"/>
<path fill="#000000" opacity="1.000000" stroke="none" 
	d="
M776.005676,106.070374 
	C773.136536,107.484116 770.674316,108.932365 768.035583,109.898819 
	C764.945007,111.030823 762.532898,109.681137 760.830688,106.997841 
	C759.082947,104.242851 759.893555,101.577766 762.077698,99.824242 
	C767.996399,95.072487 774.983765,92.279549 782.241028,90.355072 
	C784.685913,89.706734 786.701660,91.501350 787.691345,93.840805 
	C788.793518,96.445923 788.236694,98.897812 785.851257,100.444420 
	C782.789001,102.429855 779.516479,104.090950 776.005676,106.070374 
z"/>
<path fill="#000000" opacity="1.000000" stroke="none" 
	d="
M601.335022,219.168457 
	C605.241211,217.634735 608.797302,216.251221 612.369629,214.911118 
	C615.864075,213.600220 618.674622,214.624252 620.364014,217.856232 
	C622.127380,221.229935 620.299683,223.864182 617.492615,225.321671 
	C612.058960,228.142975 606.461914,230.694870 600.775574,232.965164 
	C597.988770,234.077789 595.005798,233.448532 593.434570,230.484055 
	C591.807190,227.413467 592.786926,224.581223 595.395020,222.536285 
	C597.068115,221.224457 599.113464,220.387497 601.335022,219.168457 
z"/>
<path fill="#000000" opacity="1.000000" stroke="none" 
	d="
M777.426636,230.668121 
	C779.524353,233.830383 779.274597,236.779861 777.172729,239.214096 
	C775.135498,241.573486 772.299927,241.596695 769.372375,240.653641 
	C765.435974,239.385635 761.377869,238.478882 757.482910,237.103210 
	C753.296692,235.624680 751.800232,232.348755 753.142883,228.467422 
	C754.574341,224.329178 758.064026,222.392471 762.165894,224.029617 
	C767.206238,226.041382 772.791199,226.814758 777.426636,230.668121 
z"/>
<path fill="#000000" opacity="1.000000" stroke="none" 
	d="
M681.899902,44.155800 
	C684.988708,50.391392 685.142578,56.933609 686.226257,63.260216 
	C686.648743,65.726707 685.109802,67.420601 682.694031,67.909431 
	C680.072754,68.439835 678.488953,66.839676 677.960205,64.553253 
	C676.766174,59.390381 675.556885,54.200996 674.894409,48.954132 
	C674.299866,44.246147 676.811157,42.566826 681.899902,44.155800 
z"/>
<path fill="#000000" opacity="1.000000" stroke="none" 
	d="
M608.659241,85.194618 
	C606.117065,82.672600 604.290955,80.364075 607.910583,77.298431 
	C612.206543,78.940697 614.468994,83.011650 617.653870,85.969490 
	C619.713684,87.882469 621.620972,89.968758 623.500244,92.063873 
	C624.880066,93.602127 626.116882,95.336227 623.941162,97.173485 
	C622.054688,98.766495 620.570190,97.610779 619.230896,96.219666 
	C615.784302,92.639664 612.355896,89.042160 608.659241,85.194618 
z"/>
<path fill="#000000" opacity="1.000000" stroke="none" 
	d="
M598.826172,165.250671 
	C595.772217,165.531219 593.158447,165.839478 590.536011,166.028778 
	C589.317871,166.116730 588.155518,165.768631 587.996948,164.295471 
	C587.846924,162.902161 588.727844,162.112244 589.989075,161.926086 
	C593.570068,161.397507 597.163879,160.953476 600.756226,160.504639 
	C602.372070,160.302765 604.311279,159.776627 604.635498,162.188095 
	C604.904663,164.189850 603.100281,164.451614 601.699341,164.850006 
	C600.914612,165.073166 600.076721,165.109299 598.826172,165.250671 
z"/>
<path fill="#000000" opacity="1.000000" stroke="none" 
	d="
M345.388245,317.443420 
	C331.349731,328.643860 314.867828,328.703827 305.041046,310.411682 
	C302.194183,305.112335 299.883545,299.581635 298.144196,293.829224 
	C297.454559,291.548309 297.220917,289.189301 299.416046,287.412292 
	C301.459839,285.757782 303.358459,286.918121 305.483490,287.471191 
	C318.748291,290.923523 332.093323,291.248566 345.393463,287.648529 
	C349.849121,286.442444 354.652771,283.706177 358.527802,287.626495 
	C362.412994,291.557007 359.090607,296.165192 357.622009,300.193573 
	C355.187042,306.872833 350.899841,312.413239 345.388245,317.443420 
M329.374603,297.388916 
	C324.637360,297.388916 319.900146,297.388916 315.271881,297.388916 
	C319.135315,303.533295 331.597778,303.769196 337.472046,297.392517 
	C334.941559,297.392517 332.625000,297.392517 329.374603,297.388916 
z"/>
<path fill="#000000" opacity="1.000000" stroke="none" 
	d="
M382.555481,234.885681 
	C383.986237,240.628708 382.510681,245.526794 379.991028,250.120758 
	C377.910492,253.914093 374.819183,256.295258 370.156097,254.821915 
	C366.231720,253.581940 363.579559,248.713730 364.953430,244.213287 
	C366.300781,239.799606 368.364105,235.583771 370.354431,231.395721 
	C371.366516,229.266022 373.429138,228.489899 375.812775,228.706009 
	C379.427460,229.033737 381.514465,231.086060 382.555481,234.885681 
z"/>
<path fill="#000000" opacity="1.000000" stroke="none" 
	d="
M266.606750,210.996414 
	C264.062836,212.931595 261.890808,212.574005 260.105103,210.637177 
	C258.473816,208.867844 259.258209,206.957413 260.319214,205.135742 
	C265.816437,195.697266 283.490601,189.625198 293.438049,193.752975 
	C295.389984,194.562943 297.229065,195.569244 296.703979,198.028397 
	C296.191742,200.427460 294.266083,200.686447 292.047913,200.667542 
	C282.315765,200.584702 273.927765,204.009033 266.606750,210.996414 
z"/>
<path fill="#000000" opacity="1.000000" stroke="none" 
	d="
M288.627808,224.399628 
	C283.627045,222.931717 280.007355,224.975098 276.785278,228.077545 
	C275.958191,228.873978 275.333496,229.883514 274.633820,230.808792 
	C272.735382,233.319351 271.445618,237.685913 267.184326,235.102127 
	C262.948883,232.533981 265.617889,228.775406 267.139618,225.913635 
	C271.042969,218.572830 277.543915,214.970016 285.736053,214.428925 
	C289.443176,214.184067 292.594238,215.507568 294.790527,218.636978 
	C296.255890,220.724899 297.716980,222.910080 295.403442,225.316940 
	C292.988434,227.829376 290.925354,226.273132 288.627808,224.399628 
z"/>
<path fill="#000000" opacity="1.000000" stroke="none" 
	d="
M285.077637,236.356934 
	C286.914368,233.316376 288.410004,230.122894 292.352509,230.982437 
	C295.945923,231.765839 296.987671,234.834930 297.688080,238.068558 
	C298.757111,243.003891 297.787445,247.644409 295.732666,252.086227 
	C294.431061,254.899887 292.588043,257.322266 288.912598,256.702423 
	C285.069244,256.054291 283.263641,253.390686 282.815796,249.797806 
	C282.251038,245.266556 282.911072,240.863983 285.077637,236.356934 
z"/>
<path fill="#000000" opacity="1.000000" stroke="none" 
	d="
M377.039978,219.683136 
	C377.673645,223.384506 375.766785,225.408051 372.994629,223.841995 
	C368.371124,221.230087 364.947571,222.943039 361.618256,225.584015 
	C358.862518,227.769958 356.497955,228.003265 354.363068,225.170837 
	C352.140747,222.222397 354.227417,220.185669 356.351257,218.451782 
	C363.031097,212.998489 371.094269,213.395004 377.039978,219.683136 
z"/>
<path fill="#000000" opacity="1.000000" stroke="none" 
	d="
M331.724152,278.889038 
	C328.376831,281.675323 322.869873,281.491394 320.418335,278.821625 
	C319.179596,277.472595 318.488098,275.923401 320.532837,274.694702 
	C322.291656,273.637756 330.387695,276.460114 331.724152,278.889038 
z"/>
</svg>