<svg version="1.1" id="Layer_1" xmlns="http://www.w3.org/2000/svg" xmlns:xlink="http://www.w3.org/1999/xlink" x="0px" y="0px"
	 width="100%" viewBox="0 0 640 1024" enable-background="new 0 0 640 1024" xml:space="preserve">
<path fill="#000000" opacity="1.000000" stroke="none" 
	d="
M348.352112,848.906494 
	C333.360809,846.202881 318.583313,844.418762 304.259552,840.825684 
	C279.082794,834.510010 254.364487,826.514893 229.618484,818.630005 
	C204.671753,810.681030 180.580719,800.526489 156.009415,791.627747 
	C148.140808,788.778076 148.104065,788.962952 143.102722,795.607483 
	C139.090683,800.937744 134.965027,806.178406 129.703262,810.375061 
	C128.181610,811.588684 127.509926,813.087524 127.213112,815.042542 
	C123.515892,839.395142 118.664886,863.523804 113.165337,887.532043 
	C108.102638,909.633118 105.841522,932.161133 103.354477,954.647644 
	C103.125351,956.719299 103.775337,959.324280 100.316277,959.166992 
	C97.320923,959.030945 96.939812,956.803650 96.941437,954.560791 
	C96.947746,945.859619 98.814064,937.375305 100.199951,928.846985 
	C104.654076,901.437683 109.372551,874.071838 112.720428,846.492126 
	C113.621437,839.069702 115.010773,831.704590 116.261520,824.327759 
	C116.623985,822.190002 116.954803,820.109985 116.234039,817.525757 
	C110.679016,817.957458 105.379341,819.611511 99.883209,818.837341 
	C82.558395,816.397217 70.914413,806.189270 62.610703,791.584290 
	C54.313499,776.990906 50.944973,760.850769 48.703438,744.445618 
	C45.368580,720.038757 46.888680,695.618286 48.436733,671.168823 
	C49.236973,658.530212 50.865337,645.998901 52.165909,633.425842 
	C52.429008,630.882446 51.652790,629.388123 49.931099,627.832336 
	C42.833530,621.418640 37.300938,613.651001 31.691103,606.006897 
	C25.706617,597.852295 25.903978,593.870483 31.623867,585.629578 
	C36.111057,579.164734 39.491570,572.123230 42.656223,564.943909 
	C57.238941,531.861938 69.789482,497.956818 83.464844,464.508240 
	C89.240868,450.380676 98.944145,439.295013 111.614227,430.910828 
	C120.572975,424.982574 130.756897,423.080505 141.256989,424.118134 
	C153.165405,425.294891 164.852509,424.978058 176.416046,421.800751 
	C177.218231,421.580322 178.046722,421.457489 178.854935,421.256805 
	C181.641159,420.564941 183.984253,421.076111 184.794281,424.129578 
	C185.631836,427.286743 183.607605,428.705627 180.903381,429.393768 
	C172.816528,431.451630 164.599808,432.714630 156.279205,433.304810 
	C149.802856,433.764130 143.325775,434.214355 136.847351,434.643219 
	C117.787811,435.904877 105.524231,447.262024 97.401909,463.060394 
	C87.665573,481.998077 79.148232,501.533447 72.160675,521.750061 
	C63.587097,546.555481 51.808510,569.892578 36.750771,591.450806 
	C34.502705,594.669434 34.489845,597.167419 36.747169,599.892883 
	C44.097164,608.767456 51.704571,617.359131 61.940884,623.143372 
	C68.690376,626.957458 76.342690,626.988831 83.603508,628.662170 
	C86.522545,629.335022 89.486778,629.835022 92.370972,630.629578 
	C95.677353,631.540466 98.394669,633.552612 98.034500,637.232422 
	C97.635414,641.309875 94.572777,642.995483 90.619164,643.201782 
	C82.994835,643.599426 75.747459,641.869019 68.578407,639.525208 
	C66.879257,638.969666 65.318558,637.807495 62.868420,638.114136 
	C60.885571,646.889099 60.071987,655.968140 59.426083,665.000793 
	C58.082882,683.784729 57.912586,702.620850 58.370861,721.445251 
	C58.827435,740.199829 61.819233,758.588013 68.272614,776.230774 
	C73.618645,790.846191 83.054398,801.945068 98.452011,806.612183 
	C107.954414,809.492371 116.497948,806.904358 124.010674,800.520935 
	C134.104248,791.944702 139.659363,780.247742 145.340118,768.801819 
	C160.442566,738.372498 175.471222,707.895813 186.595993,675.684387 
	C194.285965,653.418335 198.754684,630.454163 202.687881,607.294678 
	C210.318207,562.365601 218.666229,517.566589 229.969040,473.378540 
	C230.216370,472.411682 230.515106,471.452057 230.871002,470.520050 
	C231.623871,468.548553 232.699249,466.621948 235.168579,467.323944 
	C237.672150,468.035645 236.856491,470.167816 236.461823,471.937469 
	C231.021454,496.331329 228.416183,521.189270 224.505997,545.830383 
	C220.202866,572.947754 215.816849,600.032837 209.831741,626.839355 
	C202.803574,658.317688 191.701111,688.452942 179.788254,718.325623 
	C178.943069,720.444946 177.674347,722.475342 178.004913,725.599731 
	C185.240936,726.233215 192.486496,725.842651 199.739151,725.458069 
	C224.388443,724.150940 249.016022,723.787354 273.545837,727.309631 
	C286.578857,729.181030 299.739685,729.512390 312.842590,730.540405 
	C333.143219,732.133240 352.993439,736.538208 372.988342,740.062073 
	C383.147156,741.852356 393.376862,743.240601 403.574341,744.811523 
	C405.549072,745.115784 407.530182,745.385681 409.495117,745.743896 
	C411.002930,746.018616 411.817291,747.095154 411.930084,748.531372 
	C412.033936,749.852844 411.014526,750.568909 409.993378,751.207153 
	C408.195190,752.331299 406.185333,752.247803 404.186066,752.322754 
	C387.438782,752.950195 371.013184,750.098511 354.508545,747.918213 
	C334.382324,745.259583 314.218719,742.916870 293.975189,741.226624 
	C281.047119,740.147034 268.218384,737.746338 255.282455,736.923279 
	C235.538803,735.666992 215.991608,731.666870 196.065857,732.848755 
	C189.118378,733.260803 182.125931,732.914429 174.020706,732.914429 
	C167.623169,749.238708 160.637634,766.839478 151.034027,783.553833 
	C154.217407,785.797546 157.665909,785.979248 160.646622,787.283936 
	C197.554062,803.439026 236.782059,812.488647 274.934662,824.843079 
	C310.373108,836.318665 347.006378,840.896179 383.521149,846.335632 
	C400.685089,848.892395 418.057861,848.731689 435.339020,846.623962 
	C438.977234,846.180237 442.523956,845.300964 445.943451,843.865295 
	C452.165405,841.253235 458.418884,838.993713 465.048096,837.247314 
	C473.279816,835.078735 479.494507,828.599670 482.732117,820.096130 
	C485.893921,811.791931 487.535858,803.142029 488.720612,794.387329 
	C493.770905,757.067383 491.498138,719.558716 491.520203,682.111877 
	C491.522247,678.639343 490.844330,675.165039 490.440216,671.696472 
	C490.408997,671.428589 490.043762,671.199646 489.398254,670.440247 
	C479.283569,675.866333 468.177887,679.208679 457.189850,682.907654 
	C445.963806,686.686768 434.523499,685.537354 423.127960,684.893921 
	C421.787506,687.157104 422.550446,689.304016 422.655273,691.409668 
	C423.532501,709.033508 424.407562,726.657410 425.267792,744.282104 
	C425.308197,745.109985 425.288483,745.959961 425.147308,746.773804 
	C424.796387,748.796692 423.635742,750.069397 421.519287,750.288269 
	C419.398743,750.507629 417.932220,749.531372 417.271851,747.575317 
	C416.253784,744.559570 415.697968,741.420837 415.852386,738.240112 
	C417.199310,710.498657 413.127502,683.091614 410.937012,655.561218 
	C409.577301,638.472290 408.898010,621.329041 407.924957,604.209595 
	C407.877808,603.380005 407.896881,602.540222 407.964172,601.711609 
	C408.194305,598.879700 408.973511,596.074585 412.278687,595.941345 
	C415.889130,595.795776 416.998932,598.698425 417.153687,601.708984 
	C417.589539,610.188660 417.665955,618.689026 418.210205,627.160278 
	C419.095367,640.937561 420.322052,654.692749 421.222046,668.469177 
	C421.475952,672.356079 424.041901,672.342957 426.753021,672.648254 
	C444.016754,674.592224 459.620758,669.482056 474.719055,661.745728 
	C487.293365,655.302734 496.745422,645.123657 506.602722,635.494263 
	C512.451843,629.780334 513.064148,622.472656 509.347687,615.192749 
	C506.245422,609.116028 502.877472,603.156433 499.310577,597.339111 
	C491.573303,584.720093 486.248627,571.207153 482.713318,556.831360 
	C476.866028,533.054077 470.166718,509.569244 460.692719,486.857269 
	C453.942871,470.675995 443.093140,461.617920 425.648834,459.016876 
	C411.194427,456.861664 396.852509,453.779480 382.420898,451.315369 
	C372.115540,449.555756 362.435455,446.074707 354.160400,439.455353 
	C352.329834,437.991089 351.085175,437.724670 348.962708,439.111816 
	C325.932526,454.163391 300.802216,461.488068 273.163055,459.225342 
	C265.307770,458.582275 257.614441,457.126160 250.670532,453.196777 
	C248.198608,451.797974 246.481812,451.738983 244.759155,454.129639 
	C243.029266,456.530243 240.881500,457.174957 238.378189,455.119385 
	C235.954895,453.129547 235.294647,450.780762 237.162262,448.119110 
	C239.935226,444.167297 242.738861,440.231934 245.670578,436.397491 
	C256.787598,421.857391 262.830353,405.679504 261.821899,387.167755 
	C261.731384,385.506409 261.786285,383.834564 261.830811,382.169128 
	C261.879700,380.340271 262.504822,378.784698 264.562836,378.605499 
	C266.819000,378.408997 267.927490,379.837799 268.169098,381.897949 
	C268.362488,383.546783 268.273773,385.226593 268.389404,386.887177 
	C268.490448,388.337677 268.021820,389.907715 269.148163,391.185974 
	C278.021637,385.772675 280.999573,373.144257 275.273193,364.670837 
	C265.583466,350.332764 251.914185,342.240692 234.985092,339.398529 
	C232.688736,339.013031 230.395905,338.547241 228.081619,338.337067 
	C208.157593,336.527466 199.061340,343.056122 194.420822,368.224030 
	C191.066696,386.415161 191.947144,405.086700 192.198303,423.566345 
	C192.341690,434.115753 190.968628,444.358826 187.428696,454.168610 
	C173.807755,491.914551 161.516632,530.172791 145.818054,567.128052 
	C132.273865,599.011719 119.268501,631.114014 105.906479,663.070190 
	C102.248047,671.819519 99.239052,680.839478 95.872093,689.712524 
	C95.225410,691.416809 94.327858,693.029602 93.495026,694.658569 
	C91.680862,698.206787 88.618202,699.438599 85.140617,697.926880 
	C81.732697,696.445496 80.534500,693.494202 81.539352,689.630676 
	C85.200897,675.552612 90.316887,661.977844 96.585472,648.917175 
	C117.493217,605.355652 136.634369,560.998535 155.958527,516.736877 
	C165.875687,494.021820 172.358398,469.894043 181.505157,446.866699 
	C185.644653,436.445282 185.475754,426.356384 185.825775,415.872650 
	C186.370209,399.566010 185.955444,383.111786 188.100037,367.006805 
	C190.218903,351.095154 195.748199,336.031769 213.027786,329.454987 
	C212.911453,328.844757 212.981583,328.248657 212.716751,327.962402 
	C201.495911,315.833801 198.764648,300.727966 197.662918,285.062683 
	C197.480103,282.463501 198.185623,279.523285 194.027634,279.441010 
	C192.821213,279.417114 192.121414,278.194092 191.589294,277.126556 
	C182.768967,259.431335 177.738663,241.036728 181.971588,221.150818 
	C183.369797,214.582169 185.669907,208.273026 192.117218,204.825211 
	C191.912247,201.745987 190.177139,199.610184 188.876816,197.354263 
	C172.770340,169.411331 177.819366,135.765762 201.837814,112.330368 
	C208.180161,106.141991 215.177246,100.769676 223.605835,97.658485 
	C225.928085,96.801277 226.284653,95.012711 226.826233,93.062347 
	C229.295944,84.167961 234.397018,76.883652 242.233322,72.268539 
	C260.290253,61.634071 279.683594,55.689445 300.917786,58.719135 
	C314.561798,60.665867 325.789398,67.632370 334.239716,78.192078 
	C341.392242,87.130005 350.334259,90.625389 361.210052,90.727539 
	C377.171936,90.877449 391.633545,95.567879 404.793732,104.631653 
	C418.226685,113.883293 425.231873,126.390831 424.157410,142.775452 
	C423.697266,149.792572 425.155304,155.562088 429.542908,161.243790 
	C439.699890,174.396622 441.101868,204.065018 425.115570,219.561569 
	C423.321533,221.300644 421.765656,223.312363 419.847076,224.891098 
	C413.519928,230.097412 410.316132,236.690735 410.372314,244.894638 
	C410.380188,246.044830 410.436981,247.430099 409.863678,248.311295 
	C405.608765,254.850830 405.105347,262.683502 402.305878,269.669037 
	C398.949890,278.043274 392.040100,282.594482 383.104584,283.493561 
	C380.618561,283.743683 379.529541,285.123932 378.454285,286.677521 
	C372.984619,294.580017 366.170349,300.674652 356.754059,303.431976 
	C354.765350,304.014313 353.890778,305.501892 353.313965,307.360168 
	C345.335999,333.062927 339.939850,359.215912 339.405701,386.232330 
	C339.098938,401.749176 344.845856,415.565247 351.821808,428.895447 
	C354.308960,433.648132 358.974030,436.641602 364.048248,438.784882 
	C376.053101,443.855469 388.918304,444.634857 401.549591,446.685638 
	C413.209961,448.578766 424.831360,450.755554 436.406677,453.117157 
	C448.240723,455.531586 457.071350,461.783112 463.432068,472.543213 
	C475.709595,493.312531 483.018372,515.839355 489.277313,538.879089 
	C493.718750,555.228333 496.473999,572.144592 505.226868,587.089233 
	C509.770660,594.847412 514.453613,602.518005 518.523560,610.562317 
	C524.384827,622.147278 523.403198,633.015259 516.159546,643.555664 
	C512.078003,649.494751 507.295624,654.850342 501.920227,659.593201 
	C498.325134,662.765259 497.308136,665.991211 497.845032,670.914368 
	C499.378204,684.972351 500.356750,699.110107 500.991547,713.241699 
	C501.716583,729.380920 502.119843,745.546814 502.147736,761.702026 
	C502.183228,782.245178 498.108093,802.103333 490.073944,821.003357 
	C485.715424,831.256653 478.440063,838.708008 468.038910,843.743530 
	C459.570251,847.843384 452.030609,853.866638 442.981537,857.025330 
	C440.919403,857.745117 441.041779,859.595032 441.298096,861.245972 
	C445.100708,885.736938 443.580292,910.446655 444.406128,935.059753 
	C444.595795,940.712341 445.067902,946.359131 445.547516,951.996826 
	C445.770477,954.617249 445.132202,956.192261 442.181671,956.264709 
	C439.600677,956.328064 437.451416,955.986572 437.240570,952.788940 
	C437.152863,951.459106 437.070160,950.128235 437.024780,948.796448 
	C436.225067,925.325562 435.516968,901.850952 434.573029,878.385864 
	C434.353088,872.918762 433.291565,867.488586 432.704498,862.032043 
	C432.413055,859.323364 430.968597,858.305481 428.349731,858.427612 
	C402.989838,859.610779 378.392792,854.272278 353.708740,849.671936 
	C352.078186,849.367981 350.417145,849.227661 348.352112,848.906494 
M228.918823,163.875443 
	C227.821732,164.896851 226.896515,166.314407 225.600266,166.876862 
	C215.426666,171.291153 212.703552,179.317642 213.998169,189.602554 
	C214.348572,192.386124 212.460526,195.327911 214.281647,198.501724 
	C216.378876,197.195877 218.167313,195.995819 220.035263,194.935928 
	C224.992004,192.123428 230.108292,189.690720 235.932648,189.403854 
	C238.475449,189.278641 240.798019,190.022842 240.994400,192.985123 
	C241.169952,195.633286 239.242676,196.846817 236.838318,197.020966 
	C231.584488,197.401459 227.421478,200.127441 223.393265,203.112869 
	C221.126770,204.792648 219.293381,207.400452 216.794937,208.338379 
	C213.523361,209.566589 213.187988,211.584045 213.038635,214.432434 
	C212.716324,220.579544 212.217453,226.721573 211.622635,232.849365 
	C210.224594,247.251663 206.652588,261.335266 205.764572,275.846558 
	C204.651321,294.037994 206.801941,311.045898 219.162796,325.557098 
	C220.990433,327.702637 222.646820,328.552246 225.361389,328.715393 
	C245.317108,329.914764 263.259094,335.913879 277.003754,351.304260 
	C279.327911,353.906708 281.651886,354.464417 284.939209,353.352142 
	C291.463654,351.144653 297.595306,348.249146 303.195618,344.242554 
	C304.970795,342.972504 306.814972,342.176758 308.469727,344.233917 
	C310.159760,346.334869 308.805664,347.995850 307.254395,349.390717 
	C304.395935,351.960999 301.278290,354.185242 297.791595,355.840485 
	C294.064819,357.609650 290.317444,359.335388 286.390472,361.168121 
	C286.643280,362.186859 286.799194,362.975250 287.034454,363.739227 
	C291.069336,376.842163 283.879730,394.596436 271.674988,400.606201 
	C268.998505,401.924133 267.972290,403.544006 267.518005,406.090149 
	C265.476349,417.533478 261.157623,428.125885 255.475586,438.203918 
	C251.441574,445.358917 251.791824,446.196167 259.855804,448.458405 
	C260.335297,448.592896 260.831970,448.668610 261.322845,448.759735 
	C287.714752,453.658295 312.652466,450.710052 335.557159,435.581848 
	C339.500885,432.977081 340.281189,430.822327 337.883240,426.798828 
	C330.950562,415.166565 328.038055,402.442566 328.892426,388.975525 
	C330.273804,367.201294 332.634552,345.581421 339.311340,324.628235 
	C341.258179,318.518738 343.478699,312.409424 344.388916,305.835541 
	C341.010651,304.744812 337.677887,303.488525 338.278046,299.513306 
	C338.908142,295.339478 342.490173,294.987274 345.980133,294.748993 
	C350.504852,294.440094 354.954620,293.626038 358.671844,290.768890 
	C366.537537,284.723053 373.341553,277.699890 378.101410,268.895996 
	C381.074646,263.396759 381.671539,257.465729 380.599274,251.417709 
	C379.637299,245.992203 375.947266,243.460571 371.507355,244.799316 
	C368.542297,245.693390 366.224213,247.573273 364.095367,249.725739 
	C360.676758,253.182266 358.028809,257.227142 355.296417,261.213165 
	C353.756012,263.460388 351.801849,265.017273 349.021240,263.195160 
	C346.481049,261.530609 345.637329,259.246918 346.971405,256.292480 
	C348.159973,253.660446 349.979187,251.499832 351.839630,249.370804 
	C353.925720,246.983536 353.870941,245.139969 351.025238,243.317215 
	C341.312836,237.096069 330.129883,232.864349 323.761200,222.383759 
	C317.559998,227.715530 315.605652,227.402939 311.908081,220.608490 
	C307.821167,213.098679 303.295471,206.565430 293.151642,208.155075 
	C290.861725,208.513916 289.406067,206.914734 288.926361,204.725769 
	C288.404846,202.346146 289.775055,200.900604 291.802795,200.098572 
	C294.147217,199.171326 296.639587,198.935226 299.157898,198.874054 
	C305.441376,198.721466 310.256165,202.362335 315.491241,205.501175 
	C313.922180,195.052536 313.767273,194.841415 303.991425,195.383438 
	C298.508972,195.687393 293.049591,196.385590 287.571228,196.790665 
	C278.582214,197.455276 269.647797,198.051620 261.149414,193.753616 
	C248.997437,187.607864 239.853470,178.525650 233.285599,166.666046 
	C232.508240,165.262390 232.598816,162.168350 228.918823,163.875443 
M189.993088,222.593002 
	C187.187408,237.425156 190.858932,259.669403 197.460846,268.569946 
	C198.722031,259.231659 199.520752,249.608276 201.426971,240.209488 
	C203.479935,230.087280 202.164932,221.305756 194.404099,213.783768 
	C191.527115,215.666519 190.746033,218.668915 189.993088,222.593002 
M401.203064,130.896194 
	C401.916992,136.333527 400.332703,141.810272 400.624207,148.086441 
	C406.789886,142.012222 405.390137,125.412292 398.824738,115.711632 
	C392.361084,106.161400 376.165131,101.123833 366.072021,106.090370 
	C373.664276,107.531929 381.967010,105.653297 388.881958,110.205566 
	C395.989502,114.884598 399.478302,121.892120 401.203064,130.896194 
M418.639679,208.043625 
	C419.363159,205.664734 420.178864,203.309448 420.794739,200.903015 
	C424.146545,187.806747 420.911194,178.071869 410.709137,170.697739 
	C409.372009,169.731247 408.077698,167.954010 405.913300,169.333862 
	C405.597534,171.813904 407.746490,172.299637 409.110260,173.242935 
	C415.459839,177.634811 418.568604,183.459183 418.495483,191.339630 
	C418.441498,197.155701 416.795898,202.421982 414.880585,207.732620 
	C414.315033,209.300735 412.849640,210.985229 414.921143,212.573853 
	C417.348267,212.370956 417.530701,210.251862 418.639679,208.043625 
M248.566422,161.836105 
	C253.269745,173.964203 266.664215,179.563690 277.382080,172.565948 
	C270.058838,171.758682 263.352692,173.372940 257.624420,169.804657 
	C251.595291,166.048950 251.298172,158.927872 248.054153,153.079803 
	C246.385773,156.156555 248.293625,158.567841 248.566422,161.836105 
M238.925110,91.435242 
	C238.386368,94.467758 236.476181,97.386795 238.183517,102.071838 
	C238.677750,99.571541 238.960815,98.487053 239.099640,97.384399 
	C240.737259,84.377136 248.570663,77.420952 260.982727,74.908936 
	C262.935883,74.513657 264.897675,74.141792 266.823364,73.636658 
	C268.185608,73.279327 269.867554,73.184807 270.026428,71.175095 
	C258.352386,68.661568 243.132202,78.288231 238.925110,91.435242 
M384.637665,133.982666 
	C382.201569,129.427246 380.102753,124.578812 374.620697,122.495674 
	C383.752350,130.959518 386.658234,141.151001 383.488495,153.221146 
	C387.470123,147.158813 387.592926,141.022934 384.637665,133.982666 
M402.269562,186.911240 
	C402.815002,191.041077 403.360413,195.170914 403.981903,199.876526 
	C408.090759,195.616821 407.199310,189.549088 402.269562,186.911240 
M292.559540,66.601822 
	C290.926788,66.756386 290.113098,67.797241 291.970001,68.358932 
	C294.818726,69.220642 297.933960,69.341194 301.560303,68.184502 
	C298.624329,65.449310 295.813721,66.596260 292.559540,66.601822 
z"/>
<path fill="#000000" opacity="1.000000" stroke="none" 
	d="
M604.907166,181.818359 
	C600.681396,188.103516 595.868164,193.329025 590.250000,197.884033 
	C581.590698,204.904724 575.506470,214.131531 569.434937,223.276703 
	C563.813660,231.743622 556.148804,236.484680 546.181641,238.008698 
	C535.826355,239.592026 527.339539,234.356766 524.925964,224.306244 
	C523.764282,219.469055 526.058167,215.518982 529.168762,212.067810 
	C536.023804,204.462326 544.238892,198.486984 552.683167,192.815765 
	C558.622070,188.827194 564.816650,185.214203 570.326782,180.603531 
	C577.937805,174.234787 583.375183,166.456192 585.955444,156.785385 
	C588.271484,148.104889 585.196716,139.235703 577.920044,133.726761 
	C570.215210,127.893684 564.066589,127.535507 555.281677,132.734787 
	C543.195923,139.887634 534.791992,149.559326 533.820312,164.365234 
	C533.602722,167.681152 533.841980,171.538300 529.312012,172.898087 
	C523.551514,174.627243 518.788757,170.779663 518.843140,163.843719 
	C518.919312,154.134430 521.683777,145.085281 526.866577,136.908585 
	C536.403687,121.862320 548.097046,109.404030 566.747986,106.248314 
	C599.877380,100.642845 614.392273,122.353012 614.439880,145.327438 
	C614.466797,158.294159 612.090027,170.449966 604.907166,181.818359 
z"/>
<path fill="#000000" opacity="1.000000" stroke="none" 
	d="
M520.390137,283.708160 
	C509.586273,287.943542 500.046173,285.034973 493.927612,275.937622 
	C488.395630,267.712280 489.870728,257.455902 496.900116,249.346191 
	C503.125122,242.164505 510.261810,238.812759 519.806763,240.608093 
	C530.119202,242.547760 536.621948,251.373108 534.992554,261.706543 
	C533.507263,271.126556 528.971191,278.529449 520.390137,283.708160 
z"/>
<path fill="#000000" opacity="1.000000" stroke="none" 
	d="
M297.262207,234.356537 
	C297.533234,240.787674 297.677216,246.761826 295.517639,252.482208 
	C294.204803,255.959747 292.711060,259.867126 288.110596,259.079437 
	C283.511078,258.291931 282.865173,254.224442 282.604370,250.233902 
	C282.164032,243.497070 283.509338,237.050323 285.577271,230.707962 
	C286.525360,227.800186 287.608185,224.765259 291.336395,224.828033 
	C295.140839,224.892090 296.013428,227.930618 296.616028,230.989822 
	C296.807678,231.962631 297.029114,232.929550 297.262207,234.356537 
z"/>
<path fill="#000000" opacity="1.000000" stroke="none" 
	d="
M218.287949,227.425781 
	C219.699753,223.771057 219.787796,218.680817 224.383728,219.017181 
	C229.275513,219.375168 229.507812,224.621567 230.035797,228.373062 
	C230.863480,234.253967 229.204971,239.914078 226.723618,245.241028 
	C225.636429,247.575012 223.779861,249.556732 220.909729,249.056320 
	C217.962570,248.542480 216.515930,246.232849 216.046692,243.405334 
	C215.149857,238.001587 216.259766,232.842529 218.287949,227.425781 
z"/>
<path fill="#000000" opacity="1.000000" stroke="none" 
	d="
M355.232605,271.632751 
	C358.354309,264.311401 362.682098,258.233887 367.670959,252.624786 
	C369.211609,250.892578 371.079803,249.263031 373.762115,250.540985 
	C376.749817,251.964432 377.067474,255.073563 374.173798,257.222443 
	C371.042725,259.547577 368.655212,262.456360 366.312164,265.492950 
	C363.362213,269.316071 360.585419,272.705627 361.931824,278.426941 
	C362.997070,282.953491 359.585480,286.504486 355.523804,288.739136 
	C354.142548,289.499084 352.582245,289.575226 351.415222,288.234558 
	C350.432220,287.105316 350.226044,285.167786 351.264374,284.613373 
	C356.887573,281.610809 355.310516,276.645416 355.232605,271.632751 
z"/>
<path fill="#000000" opacity="1.000000" stroke="none" 
	d="
M246.158539,306.374207 
	C243.587280,301.540527 244.438354,299.435822 249.095291,299.036835 
	C251.673615,298.815948 253.883026,297.962769 256.087524,296.813599 
	C258.320801,295.649475 260.309265,295.953949 261.658173,298.164429 
	C262.959808,300.297394 261.873291,302.026184 260.211182,303.332977 
	C256.161469,306.516937 251.772415,308.519470 246.158539,306.374207 
z"/>
<path fill="#000000" opacity="1.000000" stroke="none" 
	d="
M244.775314,273.489990 
	C243.145828,275.650208 244.309937,277.120697 245.198898,278.760834 
	C246.223984,280.652100 245.696411,282.338440 243.778976,283.415619 
	C241.874008,284.485779 240.668030,283.265289 239.514816,281.979340 
	C237.661163,279.912354 237.390915,277.468597 238.147598,274.962708 
	C238.622101,273.391266 239.285812,271.753052 240.300034,270.496124 
	C242.030670,268.351349 243.195923,263.568970 246.494812,265.557220 
	C250.029648,267.687714 246.026672,270.666443 244.775314,273.489990 
z"/>
</svg>