<svg version="1.1" id="Layer_1" xmlns="http://www.w3.org/2000/svg" xmlns:xlink="http://www.w3.org/1999/xlink" x="0px" y="0px"
	 width="100%" viewBox="0 0 800 1024" enable-background="new 0 0 800 1024" xml:space="preserve">
<path fill="#000000" opacity="1.000000" stroke="none" 
	d="
M142.827148,977.692017 
	C143.477188,964.938110 145.657455,952.803528 147.262634,940.604736 
	C150.214569,918.171082 152.723251,895.695068 154.648926,873.152710 
	C155.939102,858.049683 158.907059,843.196289 161.210571,828.242615 
	C164.323914,808.031738 166.833786,787.742065 168.530579,767.345154 
	C163.464066,792.133423 158.186264,816.880920 153.387482,841.721008 
	C148.054550,869.325989 144.152725,897.205750 137.292313,924.517700 
	C132.994873,941.626221 128.868393,958.777588 124.616699,975.897705 
	C123.613373,979.937866 119.480446,981.778870 115.869270,979.928284 
	C113.459587,978.693481 114.690750,976.704163 115.068558,975.096375 
	C118.227974,961.651184 121.609390,948.257507 124.697250,934.796326 
	C135.782547,886.471313 145.650253,837.896606 154.741684,789.156128 
	C159.285217,764.797546 162.146194,740.133240 168.051926,716.024109 
	C168.195541,715.437866 168.070007,714.785706 168.070007,713.965881 
	C137.280212,716.277100 110.472115,705.648865 85.422928,689.025024 
	C82.968842,692.006775 82.647446,695.234375 81.908501,698.218079 
	C70.906700,742.641418 61.550663,787.451965 52.782330,832.334839 
	C45.101616,871.650452 39.193748,911.326782 31.235474,950.615173 
	C30.443958,954.522705 29.271793,958.356445 28.195206,962.201721 
	C27.584883,964.381653 26.199856,965.828552 23.786377,965.111450 
	C21.334885,964.383118 21.921894,962.376160 22.295637,960.544434 
	C28.413630,930.559753 34.784664,900.623657 40.550297,870.571350 
	C44.999519,847.380615 48.460159,824.001587 52.779640,800.784302 
	C56.703957,779.691101 62.169964,758.906921 65.740334,737.731079 
	C68.615356,720.679382 71.659027,703.656006 74.657700,686.625305 
	C75.258377,683.213806 74.401566,680.688477 71.536514,678.363342 
	C64.281715,672.475708 57.794636,665.822327 52.026814,658.389404 
	C47.246071,652.228394 47.135712,646.657349 51.325611,640.171570 
	C58.206764,629.519836 63.481911,617.977234 68.869774,606.514343 
	C80.781860,581.170898 90.356354,554.839417 101.599678,529.214050 
	C104.882538,521.731812 108.675026,514.509644 112.595207,507.343445 
	C120.348602,493.170044 131.786972,483.839111 147.464508,479.441895 
	C164.131454,474.767151 181.272736,471.789551 197.495148,465.528137 
	C208.061508,461.449829 218.706039,457.558533 229.164398,453.219177 
	C253.404617,443.161407 268.100189,425.544922 271.733368,399.112335 
	C273.304047,387.684967 272.782227,376.186218 273.678589,364.747925 
	C273.854492,362.503326 272.793579,360.930664 271.299591,359.508118 
	C257.730957,346.588287 252.377426,330.093872 250.737122,312.024750 
	C250.417419,308.503113 249.432404,306.061371 245.352997,305.628632 
	C236.986267,304.741058 230.942001,299.858795 226.033875,293.463074 
	C213.243866,276.796600 208.200943,257.988953 210.886169,237.144547 
	C211.075470,235.675079 211.239182,233.891541 212.126633,232.876266 
	C216.097305,228.333679 214.559921,224.324570 211.752365,219.935379 
	C204.042816,207.882690 200.385666,194.337891 199.131226,180.322952 
	C197.615479,163.388458 205.915009,150.263184 217.623688,139.058563 
	C219.822556,136.954346 220.776978,135.550629 219.830429,132.390976 
	C216.959579,122.807907 220.268875,113.960167 224.146866,105.399651 
	C234.194595,83.219650 253.570786,74.433289 275.783081,69.817749 
	C283.370789,68.241081 291.103516,69.702141 298.628723,68.932495 
	C310.163208,67.752785 320.796356,63.007854 330.887787,57.388039 
	C339.825867,52.410503 349.149902,48.347000 359.012085,45.858822 
	C372.129425,42.549393 385.414001,40.104500 398.856293,44.598827 
	C406.679016,47.214294 411.677155,52.466316 416.057159,59.533714 
	C423.858063,72.120850 425.095856,85.391930 423.175262,99.411201 
	C422.449677,104.707703 424.745209,106.287987 429.704620,106.842392 
	C452.163452,109.352951 463.508362,119.594208 469.315521,141.525269 
	C472.001740,151.669708 472.871521,161.831619 471.199829,172.183563 
	C469.554260,182.373840 464.094818,190.394669 456.485077,197.019470 
	C454.090729,199.103882 453.326965,201.164764 453.572662,204.370422 
	C454.436890,215.645523 451.425507,225.531586 441.672058,232.302414 
	C438.825012,234.278854 437.424255,236.384888 438.688629,239.794952 
	C438.860687,240.259064 438.990936,240.766357 439.003815,241.257233 
	C439.074890,243.963837 440.548004,247.840164 437.081726,248.647568 
	C433.409698,249.502930 433.935547,245.257996 433.145966,242.994843 
	C431.375427,237.919800 428.497559,236.805420 423.503693,239.545425 
	C415.539429,243.915207 411.810822,251.665634 409.768921,259.655640 
	C406.862274,271.029480 405.499329,282.797821 403.314392,295.329803 
	C419.697632,288.341827 423.881256,271.957306 432.220612,259.265778 
	C435.187714,261.433655 434.439056,263.005676 433.753082,264.531189 
	C426.756897,280.088989 418.092987,294.363861 403.114105,303.643616 
	C400.920227,305.002777 399.957886,306.904785 399.266510,309.198059 
	C396.047668,319.874817 392.834686,330.554047 389.492035,341.192352 
	C388.648285,343.877869 387.653381,346.612244 386.187164,348.990814 
	C373.592407,369.423187 373.920868,391.544739 377.672729,414.049316 
	C379.065735,422.404999 381.330994,430.612457 382.854340,438.950378 
	C383.648712,443.298279 385.985107,445.711548 390.018372,446.944489 
	C401.960327,450.595001 413.898315,454.259186 425.817413,457.983459 
	C434.241302,460.615662 442.627289,463.369019 451.038574,466.041901 
	C462.908112,469.813690 472.695984,476.373260 481.070526,485.806610 
	C490.369049,496.280762 500.801758,505.831329 506.147034,519.137146 
	C511.110352,531.492188 515.500671,544.076538 520.208191,556.535461 
	C523.504333,565.259216 527.138550,573.861755 530.210083,582.662170 
	C534.340454,594.496155 542.408203,603.548035 550.397339,612.744202 
	C555.445435,618.555054 558.868652,625.076172 557.637939,633.291992 
	C562.855103,623.448975 566.904236,613.154114 570.995728,602.885071 
	C586.048035,565.105774 603.097046,528.243469 621.821777,492.153320 
	C622.983032,489.915100 623.347412,487.925293 622.596741,485.517548 
	C617.031799,467.670135 613.103760,449.425598 611.219299,430.859772 
	C609.069275,409.678467 609.429565,388.584320 617.934875,368.474243 
	C618.707458,366.647552 619.613159,364.798096 620.831177,363.254395 
	C623.828491,359.455597 628.716797,359.789032 631.166443,363.971741 
	C634.196167,369.144775 634.670654,375.026764 635.243713,380.813354 
	C636.245239,390.926422 637.608826,400.974579 640.029297,410.853973 
	C640.494263,412.751801 640.783875,415.075470 643.184387,415.497803 
	C645.404541,415.888336 646.945496,414.202454 648.189697,412.698181 
	C651.302124,408.935272 653.254150,404.498535 654.984436,399.969849 
	C662.899231,379.254791 671.442993,358.829407 682.506470,339.544800 
	C684.268433,336.473572 686.301086,333.665375 688.942627,331.322815 
	C693.368958,327.397491 697.598450,328.204956 700.020630,333.785858 
	C702.501831,339.502808 701.555847,345.589081 700.840942,351.512238 
	C700.098572,357.662323 697.537598,363.348206 696.033020,369.512756 
	C700.837646,363.198151 705.582336,356.836731 710.465210,350.583252 
	C714.671814,345.195770 719.056763,339.920624 724.163940,335.370667 
	C726.933350,332.903412 730.014038,329.689453 734.253479,332.618408 
	C738.297852,335.412628 738.489319,339.432953 737.095764,343.788940 
	C734.378540,352.282349 729.583740,359.735504 725.355042,367.473572 
	C724.816406,368.459259 724.257935,369.434174 724.225525,370.795898 
	C727.861084,366.820068 731.458435,362.808411 735.143005,358.878540 
	C738.806152,354.971649 742.685608,351.275421 747.833557,349.386902 
	C753.680420,347.242065 758.149597,350.415802 758.399536,356.646667 
	C758.569458,360.884430 756.581177,364.377991 754.682495,367.882080 
	C749.365417,377.695038 744.119019,387.550934 738.028442,396.922241 
	C737.509216,397.721222 737.149780,398.623993 736.973511,399.722076 
	C743.076294,394.664856 748.766479,389.152618 755.594177,385.126373 
	C758.024841,383.692963 760.587280,382.484222 763.077393,381.150116 
	C766.080200,379.541412 768.925354,379.784821 771.313538,382.197662 
	C773.679932,384.588409 773.958313,387.631012 772.635620,390.555908 
	C770.648987,394.949310 768.581787,399.344818 766.091370,403.462799 
	C762.297424,409.736267 758.059082,415.741333 752.943604,421.044312 
	C740.870728,433.559937 730.726501,447.624969 720.738831,461.760986 
	C707.824280,480.039429 691.383789,495.415070 678.585510,513.758911 
	C676.872498,516.214111 674.791199,516.962158 672.296631,514.815491 
	C669.769287,512.640503 671.010010,510.621826 672.761353,508.843903 
	C697.526001,483.703217 715.665039,453.178192 739.252258,427.062622 
	C746.008728,419.581848 751.308289,410.918030 754.716736,400.970428 
	C747.177734,407.895233 739.568054,414.745117 732.123596,421.770111 
	C726.791931,426.801331 721.874390,432.284637 716.394714,437.140350 
	C713.455200,439.745148 710.620728,445.509277 705.840942,441.898102 
	C700.608093,437.944580 705.655090,433.725372 707.808594,430.240601 
	C714.551331,419.329315 721.721008,408.682953 728.602112,397.855621 
	C732.327148,391.994263 735.290894,385.730011 738.399536,378.021606 
	C723.798645,392.074768 711.897705,406.596375 700.833069,421.838104 
	C698.674316,424.811768 696.400818,427.626770 693.221619,429.668732 
	C690.593201,431.356964 688.293396,431.510040 686.045105,429.236084 
	C683.939209,427.106201 683.489502,424.921051 685.056458,422.061157 
	C693.622009,406.428253 702.040588,390.714691 710.484497,375.015350 
	C711.246643,373.598328 711.829407,372.084808 711.740173,370.105591 
	C708.264832,374.413940 704.723145,378.670715 701.327393,383.040955 
	C693.350159,393.307068 686.131531,404.109741 678.958740,414.942749 
	C677.855408,416.609131 676.769104,418.295746 675.541138,419.868500 
	C673.808411,422.087708 671.737427,422.843384 668.976074,421.441101 
	C665.948547,419.903687 666.139893,417.658539 667.201782,415.127991 
	C671.584045,404.684814 676.093872,394.294067 680.374023,383.809387 
	C685.097046,372.239532 688.931702,360.393799 690.821655,347.310120 
	C688.670288,348.775360 687.949219,350.578003 686.969116,352.160278 
	C677.890137,366.816406 670.832886,382.402313 665.249573,398.703033 
	C663.146484,404.843231 660.522278,410.802551 656.815186,416.214325 
	C655.482788,418.159485 654.009094,419.949066 652.116272,421.351227 
	C645.006592,426.618042 636.633545,423.746704 634.771790,415.118195 
	C632.176208,403.088654 629.978455,390.973480 627.572632,378.902435 
	C627.220398,377.135101 626.659790,375.409332 625.794495,372.156555 
	C622.123413,380.556824 620.880005,388.040100 620.202576,395.686157 
	C618.491333,415.001678 621.872742,433.807404 625.759277,452.577057 
	C628.286865,464.784119 630.039856,477.175079 634.401978,488.937988 
	C635.524963,491.966278 634.945129,494.657440 633.943420,497.625732 
	C624.895874,524.435181 610.979614,548.978760 598.513550,574.195679 
	C581.454651,608.703064 565.800110,643.836243 551.431458,679.545044 
	C551.058594,680.471680 550.697754,681.403992 550.293762,682.317017 
	C549.267761,684.635437 547.944885,686.562744 544.999268,685.138672 
	C542.384827,683.874756 541.421814,681.876038 542.498047,678.971252 
	C544.638794,673.193176 546.703796,667.386353 548.732910,661.567932 
	C549.956238,658.059875 549.899414,658.040039 546.223511,654.673218 
	C538.567139,663.429810 530.773132,672.061707 523.294800,680.959045 
	C510.193420,696.546387 492.972565,705.008240 473.770050,710.153625 
	C472.526398,710.486877 471.157043,710.351013 469.522949,710.453674 
	C468.986969,717.583923 469.040894,724.420227 473.272186,730.893005 
	C482.833038,745.518616 490.174591,761.542236 501.346863,775.171143 
	C509.226196,784.783020 518.223328,793.083313 528.515869,800.060303 
	C539.049927,807.200928 549.303162,806.962585 560.328430,800.733521 
	C583.003906,787.922485 595.196655,767.388611 604.770203,744.207031 
	C616.359985,716.143311 621.761292,686.466187 629.183105,657.303101 
	C636.530151,628.433899 643.876038,599.563904 651.059937,570.653809 
	C654.750244,555.803101 658.025269,540.849670 661.612488,525.972656 
	C663.051270,520.005737 666.071655,517.671997 670.412415,518.667480 
	C674.921265,519.701599 676.973389,523.524048 675.736450,529.323914 
	C668.931152,561.235535 661.380737,592.932800 651.747192,624.161377 
	C643.310364,651.510498 637.709595,679.671570 630.056030,707.240906 
	C622.701721,733.731995 613.604797,759.726379 596.451538,781.950989 
	C586.993591,794.205078 576.048157,804.819885 562.484802,812.458618 
	C547.998596,820.616943 534.081421,819.141174 520.863464,809.421631 
	C506.062775,798.538391 496.006256,783.549622 485.941772,768.619080 
	C481.056702,761.372131 476.599823,753.836548 471.567078,745.823364 
	C472.902435,768.917542 475.169434,791.213013 476.883636,813.550781 
	C478.628845,836.292175 480.924774,858.958069 484.260040,881.507324 
	C488.620758,910.989319 490.049103,940.780945 493.981720,970.301514 
	C494.350922,973.072876 493.282349,974.473389 490.709839,974.811462 
	C487.905975,975.179932 485.081573,975.465515 482.257538,975.587097 
	C479.125061,975.721985 479.044220,973.160095 478.784088,971.073608 
	C477.075409,957.368896 475.006775,943.690063 473.891571,929.934937 
	C472.182770,908.858765 469.587860,887.887634 467.385345,866.869568 
	C465.060791,844.686401 462.857605,822.499207 461.528656,800.213135 
	C459.267670,762.296753 457.849152,724.378174 457.332428,686.390381 
	C457.056885,666.135620 455.258881,645.822021 451.015137,625.865723 
	C450.329926,622.643433 450.322937,619.189514 454.500885,618.241089 
	C458.968597,617.226807 460.421204,620.423401 461.050690,623.932434 
	C463.256561,636.229004 464.214233,648.678345 465.248871,661.108948 
	C466.104675,671.391357 466.678772,681.696960 467.413849,691.989746 
	C467.543610,693.806885 467.807678,695.624512 469.170654,697.525879 
	C483.154877,693.384033 496.837708,688.497192 508.544250,679.225342 
	C523.710571,667.213257 537.337402,653.999146 544.676636,635.456909 
	C546.860229,629.940247 546.949646,625.116455 542.848450,620.674316 
	C522.326416,598.446228 513.262024,570.215393 503.364136,542.761169 
	C495.608368,521.248718 483.812378,503.220001 467.233276,487.922028 
	C461.580292,482.705780 454.655853,479.852295 447.597931,477.271301 
	C426.322205,469.490997 404.950470,461.942780 384.784485,451.476440 
	C382.362183,450.219208 380.507599,450.351135 378.440094,452.083099 
	C375.377655,454.648560 372.008636,456.857513 369.023865,459.504333 
	C360.871613,466.733551 351.202423,469.636536 340.551514,469.930817 
	C313.448700,470.679657 289.122681,463.779968 269.447937,444.085297 
	C268.977325,443.614227 268.460449,443.189667 267.973633,442.734344 
	C266.408447,441.270508 266.002625,439.477905 267.378204,437.848755 
	C268.922455,436.019806 270.406525,437.538269 271.689117,438.507324 
	C274.612305,440.715973 277.503113,442.970581 280.347107,445.280304 
	C291.680511,454.484497 304.696838,458.793671 319.226349,458.617950 
	C327.047516,458.523407 334.856018,458.835327 342.695007,458.203735 
	C354.105835,457.284363 362.208679,450.244720 370.873383,444.108429 
	C372.300751,443.097595 372.271057,441.764832 372.066589,440.127441 
	C370.665192,428.905487 369.334564,417.673645 368.107819,406.431183 
	C366.843140,394.840942 369.390808,383.565460 371.187042,372.236847 
	C371.490662,370.321808 371.930359,368.428406 372.452545,365.790863 
	C370.313141,367.521820 368.813293,368.790527 367.253418,369.980499 
	C365.919220,370.998352 364.496124,372.146271 362.814301,370.668152 
	C361.355560,369.386017 361.448700,367.682495 362.038177,366.044678 
	C363.074219,363.166107 364.757446,360.527893 367.080078,358.688416 
	C378.695618,349.489136 382.139069,336.478424 384.649750,322.805298 
	C390.806427,289.275787 395.488922,255.450470 404.540131,222.491913 
	C405.770294,218.012543 403.513702,215.310471 398.503906,215.263000 
	C392.862183,215.209549 387.214020,215.782669 381.601990,214.817520 
	C380.889801,222.308441 379.233826,223.368576 372.421906,220.852768 
	C367.294189,218.958984 362.066010,218.362030 356.724304,219.699875 
	C354.402710,220.281342 352.331177,220.450027 351.459473,217.649994 
	C350.665070,215.098160 352.510315,213.930023 354.347046,213.105347 
	C357.332184,211.765030 360.433075,210.682465 364.415863,209.127777 
	C354.896790,204.524918 347.766663,198.130295 341.366211,190.871506 
	C339.452545,188.701187 337.624268,189.577820 335.607574,190.736954 
	C328.523071,194.808884 321.421722,199.033386 313.180725,200.194046 
	C293.260315,202.999619 277.521667,194.814606 264.072052,180.948761 
	C263.379211,180.234467 262.754639,179.454269 262.076355,178.725098 
	C261.985504,178.627411 261.765137,178.650177 261.302582,178.554962 
	C260.153137,181.759140 259.131042,185.071335 257.788605,188.248169 
	C255.440491,193.804947 252.803360,199.416809 247.790237,202.949402 
	C243.624222,205.885086 243.911392,209.392441 244.568481,213.453964 
	C247.171844,229.545258 249.515198,245.681671 252.348770,261.731812 
	C255.276367,278.314606 255.980560,295.130188 258.141479,311.788330 
	C260.048828,326.491821 264.570801,339.948151 275.269073,350.846771 
	C279.692596,355.353149 283.586548,360.384308 287.646912,365.239044 
	C288.743744,366.550476 290.794189,367.960419 289.164429,369.887207 
	C287.804230,371.495270 286.113953,370.073151 284.627716,369.400665 
	C283.457581,368.871185 282.259308,368.403961 280.200409,367.544678 
	C280.200409,374.453674 280.388428,380.725586 280.159576,386.982269 
	C279.738525,398.494995 278.521362,409.936951 274.358063,420.786163 
	C267.210602,439.411713 252.395325,450.698059 235.471451,459.237549 
	C216.818527,468.649536 196.669220,474.137115 176.476074,479.286774 
	C168.734421,481.261047 161.084930,483.604248 153.323532,485.491974 
	C138.109467,489.192352 127.401924,498.427887 119.701569,511.772308 
	C108.913307,530.468018 100.799759,550.321472 93.369431,570.521973 
	C83.692947,596.829041 72.448418,622.442200 57.865345,646.453979 
	C55.788525,649.873596 57.156521,652.044189 59.057663,654.464966 
	C78.488800,679.206604 103.231201,694.892395 134.681946,699.789856 
	C147.159454,701.732849 159.509369,701.919434 172.000900,700.808167 
	C174.764740,700.562317 175.694519,699.434509 175.968750,696.847290 
	C177.022446,686.905884 177.663330,676.951782 177.825500,666.951477 
	C177.976715,657.627441 178.381790,648.305420 178.805161,638.988464 
	C179.046051,633.687561 181.459763,630.933044 185.280640,631.173828 
	C189.550751,631.442871 192.191238,635.149963 191.119186,640.362671 
	C183.250778,678.621643 181.449783,717.600769 177.623077,756.314087 
	C174.054428,792.416443 169.418182,828.407776 166.470154,864.568665 
	C164.590485,887.625244 163.114075,910.714844 161.194153,933.767822 
	C160.075607,947.198730 158.533783,960.597412 156.994736,973.989014 
	C156.236481,980.586853 149.341370,982.529297 142.827148,977.692017 
M373.890137,66.278824 
	C378.614532,63.201466 383.916931,61.842010 389.423584,61.218327 
	C396.356323,60.433128 399.209229,62.387081 401.258392,69.037163 
	C401.648712,70.303864 402.020294,71.595917 402.596191,72.781174 
	C403.432800,74.502869 404.957275,75.157631 406.769043,74.614021 
	C408.589874,74.067688 409.336731,72.577995 409.340240,70.762550 
	C409.357452,61.896790 402.098907,54.521488 393.103333,54.240719 
	C383.034119,53.926441 374.173065,57.374504 366.023956,62.992947 
	C354.906982,70.657608 342.989777,76.547821 329.388519,77.853004 
	C319.787781,78.774307 310.094635,79.440460 300.466095,79.216354 
	C280.800171,78.758644 263.584534,85.141327 247.784393,96.299782 
	C243.358505,99.425446 240.571503,103.583481 239.165268,108.744392 
	C238.839325,109.940651 238.669052,111.105843 240.727127,111.459885 
	C243.242172,108.228699 243.252594,103.166267 247.147552,100.779396 
	C256.358521,95.134811 265.384491,89.150940 276.066040,86.358139 
	C287.852631,83.276405 299.890900,83.848862 311.838837,83.725945 
	C333.896729,83.499046 355.010406,80.376717 373.890137,66.278824 
M216.882843,245.214294 
	C215.692581,250.043777 216.574646,254.840408 217.337158,259.581238 
	C219.649582,273.958344 226.251266,285.948090 237.853790,294.931580 
	C240.537735,297.009674 243.488831,298.947052 247.138504,298.151581 
	C248.084824,296.191193 247.439941,294.600250 247.114487,292.988495 
	C245.930222,287.123444 244.574860,281.284729 243.635101,275.380219 
	C241.541061,262.223358 236.527023,250.167511 230.177597,238.594360 
	C228.981110,236.413498 227.584457,234.291763 225.464844,232.851105 
	C222.156189,230.602264 219.881058,231.302979 218.479492,234.998108 
	C217.341949,237.997116 217.240021,241.178391 216.882843,245.214294 
M211.789047,184.318161 
	C211.373291,177.699463 210.957550,171.080750 210.517624,164.077042 
	C205.813187,167.625061 206.546188,187.119202 211.129639,193.079788 
	C213.581772,190.587494 212.220535,187.818710 211.789047,184.318161 
M452.706238,138.904877 
	C454.243378,141.609039 454.668854,145.030762 457.700836,147.199738 
	C458.731384,138.911041 451.683350,127.282478 445.073517,126.995270 
	C447.660248,130.969360 450.025879,134.603729 452.706238,138.904877 
M408.550629,90.391685 
	C408.268585,88.381653 407.851349,86.500023 405.166565,86.589157 
	C403.953674,88.752716 404.249146,90.681190 405.804749,92.130119 
	C406.917603,93.166656 407.902100,92.261551 408.550629,90.391685 
z"/>
<path fill="#000000" opacity="1.000000" stroke="none" 
	d="
M361.960236,261.715698 
	C355.694458,265.269958 352.514099,263.784607 351.710876,257.299683 
	C350.874725,250.549133 349.805786,243.790451 352.591370,237.178482 
	C353.943390,233.969315 355.652191,230.739777 359.618317,231.483658 
	C363.495911,232.210892 364.457001,235.604706 364.236145,239.252747 
	C363.787872,246.657089 364.873505,254.202225 361.960236,261.715698 
z"/>
<path fill="#000000" opacity="1.000000" stroke="none" 
	d="
M414.294373,257.467407 
	C416.649506,253.791977 418.688629,250.317917 421.906219,247.823929 
	C423.779572,246.371902 425.877045,245.169662 428.344391,246.268768 
	C430.356628,247.165161 431.261444,248.900528 431.248260,251.101074 
	C431.231598,253.879944 429.039215,254.429077 427.067688,255.374283 
	C420.464325,258.540131 418.130066,264.583313 419.888611,272.062866 
	C421.090424,277.174469 418.622223,281.453461 415.447937,285.275299 
	C414.667297,286.215179 413.500549,286.733337 412.333954,285.931763 
	C411.094574,285.080200 410.766815,283.764465 411.343750,282.395508 
	C412.397522,279.895020 412.829926,277.743835 409.898865,276.025604 
	C408.402466,275.148376 408.878937,273.431366 409.279083,271.920685 
	C410.557434,267.094147 411.798248,262.260315 414.294373,257.467407 
z"/>
<path fill="#000000" opacity="1.000000" stroke="none" 
	d="
M302.499084,305.583679 
	C314.462646,311.885773 326.283783,312.606567 338.399139,307.133148 
	C340.966675,305.973175 343.703766,305.162415 346.408051,304.339783 
	C348.455505,303.716919 350.033051,304.471405 350.789581,306.536591 
	C351.552032,308.618042 350.270294,309.713684 348.608734,310.363495 
	C334.357086,315.937164 319.824615,318.729156 304.685303,314.348358 
	C302.802155,313.803467 301.070801,312.693298 299.315399,311.758148 
	C297.246307,310.655914 295.680786,309.156799 296.761017,306.563141 
	C297.959808,303.684875 300.073975,304.427216 302.499084,305.583679 
z"/>
<path fill="#000000" opacity="1.000000" stroke="none" 
	d="
M262.282043,216.232361 
	C269.824493,209.839920 278.271667,208.545471 287.390869,209.954742 
	C289.389374,210.263580 291.281403,210.810593 293.011505,211.871216 
	C294.556976,212.818649 295.565765,214.090637 295.036499,215.990845 
	C294.491241,217.948349 293.084290,219.139832 291.062408,219.180054 
	C289.767883,219.205780 288.464050,218.744690 287.163757,218.505112 
	C280.056946,217.195526 273.342346,217.150253 267.664246,222.845505 
	C265.730438,224.785172 263.461975,228.577759 259.935974,224.808502 
	C256.504211,221.140015 259.851501,218.890518 262.282043,216.232361 
z"/>
<path fill="#000000" opacity="1.000000" stroke="none" 
	d="
M282.397736,262.742035 
	C278.591370,260.466095 278.485779,256.756256 277.927948,253.402740 
	C277.169128,248.840790 276.784485,244.215012 276.288910,239.611282 
	C275.842407,235.463364 278.098175,232.135956 281.457947,231.882050 
	C284.659027,231.640152 287.384216,234.842422 287.292908,239.047485 
	C287.181274,244.189972 287.434814,249.286880 287.887054,254.417374 
	C288.210358,258.085449 288.236481,262.372528 282.397736,262.742035 
z"/>
<path fill="#000000" opacity="1.000000" stroke="none" 
	d="
M321.226685,297.329834 
	C319.474976,297.106506 318.148376,296.975769 316.861725,296.674316 
	C315.149323,296.273071 314.460236,295.138153 314.593170,293.352234 
	C314.744354,291.321075 315.866089,290.152924 317.747101,290.202271 
	C320.727905,290.280457 323.715576,290.604309 326.668732,291.038788 
	C328.429474,291.297821 329.026581,292.747650 328.968536,294.400208 
	C328.906494,296.166290 327.908722,297.175903 326.163788,297.292877 
	C324.671234,297.392975 323.168060,297.334686 321.226685,297.329834 
z"/>
<path fill="#000000" opacity="1.000000" stroke="none" 
	d="
M239.084564,268.773682 
	C237.235931,274.465179 234.899963,270.287140 232.185608,269.115265 
	C232.578018,273.457397 235.070450,276.445557 236.578094,279.793335 
	C237.346268,281.499084 238.348816,283.144470 236.085632,284.518402 
	C234.016174,285.774750 232.584198,284.769806 231.447754,283.141174 
	C226.552994,276.126434 223.237457,269.299103 228.811081,262.291016 
	C231.106186,259.405212 227.268402,250.221924 223.156464,247.644638 
	C222.316910,247.118439 221.348816,246.800430 220.493149,246.296173 
	C219.040588,245.440201 217.411774,244.514954 218.413620,242.447189 
	C219.374405,240.464172 220.983078,239.379120 223.300491,240.198090 
	C226.770767,241.424500 229.243134,243.819183 230.807587,247.090927 
	C234.102081,253.980713 236.929733,261.059265 239.084564,268.773682 
z"/>
</svg>